<?xml version="1.0" encoding="UTF-8" standalone="no"?>
<svg
   xmlns:dc="http://purl.org/dc/elements/1.1/"
   xmlns:cc="http://creativecommons.org/ns#"
   xmlns:rdf="http://www.w3.org/1999/02/22-rdf-syntax-ns#"
   xmlns:svg="http://www.w3.org/2000/svg"
   xmlns="http://www.w3.org/2000/svg"
   xmlns:sodipodi="http://sodipodi.sourceforge.net/DTD/sodipodi-0.dtd"
   xmlns:inkscape="http://www.inkscape.org/namespaces/inkscape"
   version="1.1"
   id="svg830"
   width="100.00001"
   height="86.980804"
   viewBox="0 0 100.00001 86.980804"
   sodipodi:docname="kyle.svg"
   inkscape:version="0.92.2 (5c3e80d, 2017-08-06)">
  <metadata
     id="metadata836">
    <rdf:RDF>
      <cc:Work
         rdf:about="">
        <dc:format>image/svg+xml</dc:format>
        <dc:type
           rdf:resource="http://purl.org/dc/dcmitype/StillImage" />
        <dc:title></dc:title>
      </cc:Work>
    </rdf:RDF>
  </metadata>
  <defs
     id="defs834" />
  <sodipodi:namedview
     pagecolor="#ffffff"
     bordercolor="#666666"
     borderopacity="1"
     objecttolerance="10"
     gridtolerance="10"
     guidetolerance="10"
     inkscape:pageopacity="0"
     inkscape:pageshadow="2"
     inkscape:window-width="1920"
     inkscape:window-height="1017"
     id="namedview832"
     showgrid="false"
     inkscape:zoom="5.1868131"
     inkscape:cx="32.075955"
     inkscape:cy="44.588717"
     inkscape:window-x="-8"
     inkscape:window-y="-8"
     inkscape:window-maximized="1"
     inkscape:current-layer="svg830"
     fit-margin-top="0"
     fit-margin-left="0"
     fit-margin-right="0"
     fit-margin-bottom="0" />
  <g
     id="g5374"
     transform="matrix(0.0223314,0,0,0.0223314,-0.48012528,-20.90219)">
    <path
       style="fill:#daa426"
       d="M 583.48932,3857.8907 21.666667,2884.7814 v -1.2826 -1.2827 L 583.48642,1909.1081 1145.3062,936 h 1124.6807 1124.6807 l 552.4162,956.75 552.4162,956.75 v 34 34 L 3947.0823,3874.25 3394.6646,4831 H 2269.9883 1145.312 Z m 1748.96068,825.2588 -0.95,-0.8505 -413.5,-296.7722 -413.5,-296.7722 -1.7939,-1.6989 -1.7938,-1.699 509.5774,-227.8114 509.5775,-227.8114 0.5591,0.5591 0.5591,0.5591 215.8417,526.3239 215.8418,526.324 28.5655,0.2653 28.5656,0.2654 v -0.5714 -0.5714 l -220.0175,-536.4964 -220.0175,-536.4964 -0.2325,-1.0934 -0.2325,-1.0934 349.5,-156.2982 349.5,-156.2983 3.5,-1.7948 3.5,-1.7948 -4.5,-0.2858 -4.5,-0.2857 -11.3526,-1.5242 -11.3526,-1.5241 -13.1474,-3.3141 -13.1474,-3.3141 -10,-4.2204 -10,-4.2205 -2.5,-0.976 -2.5,-0.976 -320.9566,143.5593 -320.9566,143.5594 -1.0434,-0.021 -1.0434,-0.021 -61.5,-150.0914 -61.5,-150.0914 -0.73,-1.9206 -0.7301,-1.9205 -7.9362,5.4351 -7.9362,5.4352 -8.3338,4.4571 -8.3337,4.4572 -6.8313,2.8254 -6.8313,2.8254 0.4308,2.0655 0.4307,2.0654 60.6506,147.7523 60.6505,147.7524 v 0.8387 0.8387 l -523.75,234.1104 -523.75,234.1104 -1.1845,0.2985 -1.1845,0.2986 -116.5269,-83.5 -116.527,-83.5 3.2909,-3 3.2909,-3 309.7041,-293.8831 309.7042,-293.883 -0.4242,-0.4242 -0.4242,-0.4243 -10.8594,1.7676 -10.8594,1.7676 -28.7527,0.1053 -28.7527,0.1053 -287.6664,272.9344 -287.6664,272.9344 -7.1358,6.6665 -7.1357,6.6666 -205.36835,-147.422 -205.36834,-147.4219 -2.71104,-2.2446 -2.71103,-2.2446 52.20799,-262.2404 52.20799,-262.2405 0.50934,-0.5093 0.50934,-0.5093 141.1669,-10.7427 L 1145,3004.5156 v -26.7663 -26.7664 l -5.25,0.565 -5.25,0.5649 -130.4659,9.8946 -130.4659,9.8945 -0.41609,-0.4161 -0.4161,-0.4161 28.257,-142.2846 28.257,-142.2847 0.23872,-0.2804 0.23871,-0.2804 100.88626,-45.5195 100.8863,-45.5196 6.6405,-3.0476 6.6405,-3.0477 0.6753,-16.1524 0.6753,-16.1524 1.4886,-13.3623 1.4885,-13.3623 -0.3758,-0.3758 -0.3758,-0.3758 -102.8956,46.4377 -102.89556,46.4378 -0.1978,-0.1997 -0.19781,-0.1996 152.38377,-766.793 152.3837,-766.7931 0.2811,-2.7069 0.2811,-2.707 -8.2123,-0.2898 -8.2123,-0.2899 -2.3643,3.7899 -2.3643,3.7898 -25.7818,44.7535 -25.7818,44.7535 -145.997,734.7465 -145.99696,734.7465 -0.28912,0.3112 -0.28912,0.3111 -321.3555,144.9896 -321.3555,144.9897 -6.6062,3.0309 -6.60619,3.031 13.10619,22.8813 13.1062,22.8812 0.57537,0.037 0.57537,0.037 307.89299,-138.9483 307.89299,-138.9483 0.19054,0.1983 0.19054,0.1983 -25.99786,131 -25.99785,131 -0.33936,0.345 -0.33936,0.345 -273.67496,20.8416 -273.67496,20.8416 -0.49894,0.499 -0.49894,0.4989 14.21314,24.574 14.21313,24.574 0.7193,0.4445 0.7193,0.4446 253.91978,-19.3467 253.91978,-19.3467 0.19697,0.1729 0.19697,0.1729 -48.35482,243.2942 -48.35482,243.2942 -0.34215,0.3297 -0.34215,0.3297 -129.40712,-92.9137 -129.40712,-92.9138 -0.35013,0.3501 -0.35013,0.3502 31.06824,53.9094 31.06825,53.9094 2.73971,2.5 2.73971,2.5 90.49144,64.9092 90.49145,64.9092 -13.78237,69.0908 -13.78238,69.0908 0.37695,1.6748 0.37694,1.6748 19.36328,33.5023 19.36328,33.5024 0.61805,-1.1772 0.61805,-1.1771 16.77121,-85 16.7712,-85 0.69571,-0.785 0.69572,-0.7849 192.41503,138.1005 192.41503,138.1005 1.2097,1.1845 1.2097,1.1844 L 1016.9597,3999.445 900,4110.3891 v 0.8394 0.8393 l 13.19106,22.889 13.19107,22.8891 2.68567,-2.173 2.68567,-2.1729 122.74313,-116.5 122.7431,-116.5 1.2055,0.1098 1.2054,0.1098 107.1117,76.8902 107.1117,76.8902 -0.687,0.6557 -0.687,0.6556 -203,90.7064 -203,90.7064 -0.88139,0.8193 -0.88138,0.8194 12.72118,22.0651 12.72119,22.0651 0.8393,0.5187 0.8392,0.5186 214.821,-96.1134 214.8209,-96.1135 1.5111,-0.4558 1.5112,-0.4559 398.9888,286.5253 398.9889,286.5253 45.45,0.029 45.45,0.029 -0.95,-0.8505 z m 1065.001,-150.9071 34.7409,-60.2576 0.9319,-3.2424 0.9319,-3.2424 97.4858,-664 97.4858,-664 0.445,-2.0093 0.445,-2.0092 341.9164,-152.8545 341.9164,-152.8545 1.2578,-0.7774 1.2578,-0.7774 -12.2758,-21.3588 -12.2757,-21.3589 -1.2691,-1.3762 -1.269,-1.3763 -324.6953,145.1857 -324.6954,145.1856 -0.3614,-0.3615 -0.3614,-0.3614 18.9357,-128.8316 18.9357,-128.8317 0.534,-0.534 0.534,-0.5339 301.249,-22.928 301.249,-22.928 0.2835,-0.2712 0.2836,-0.2712 -14.3773,-24.8832 -14.3772,-24.8831 -2.9063,-0.2511 -2.9063,-0.2511 -280.5,21.4117 -280.5,21.4118 -0.2197,-0.2137 -0.2197,-0.2137 35.4775,-241.3714 35.4775,-241.3714 0.4378,-0.4379 0.4379,-0.4378 194.1613,129.172 194.1612,129.1721 0.3879,-0.3878 0.3878,-0.3879 -29.2474,-50.6704 -29.2474,-50.6704 L 3926.4974,2322.9015 3765.5,2215.8 l -0.3869,-0.3702 -0.3868,-0.3702 20.1676,-137.1308 20.1677,-137.1309 -21.2808,-36.8476 -21.2808,-36.8477 -0.2392,0.6987 -0.2391,0.6987 -22.0102,150 -22.0101,150 -1.1174,7.123 -1.1174,7.123 -207.4144,-138.0297 -207.4144,-138.0297 0.2957,-0.8872 0.2958,-0.8873 154.9853,-146.9764 154.9854,-146.9765 0.8399,-1.2339 0.8399,-1.2339 -13.2312,-22.9957 -13.2313,-22.9957 -0.3031,-0.3611 -0.3031,-0.3611 -48.3055,45.8846 -48.3056,45.8845 -117.2666,111.2753 -117.2667,111.2753 -107.0688,-71.226 -107.0688,-71.2261 2.3355,-1.2099 2.3354,-1.21 251,-113.2306 251,-113.2307 2.2268,-1.1479 2.2269,-1.1479 -12.9819,-22.4842 -12.9819,-22.4842 -1.745,0.098 -1.7449,0.098 -266.5,120.3014 -266.5,120.3015 -1,-0.01 -1,-0.01 -463,-308.1286 -463,-308.1285 -46.8333,-0.013 -46.8334,-0.013 0.3334,0.9508 0.3333,0.9508 480.5,319.647 480.5,319.647 0.7691,0.7213 0.769,0.7212 -478.2311,215.8183 -478.2312,215.8183 -1.0379,-1.6399 -1.0379,-1.6399 -219.5146,-535.2474 -219.5147,-535.2475 -28.3549,-0.2658 -28.355,-0.2658 0.4695,2.2658 0.4694,2.2658 223.6501,545.2783 L 1925,2177.0525 v 0.7666 0.7667 l -244.75,110.4081 -244.75,110.4081 -6.78,3.1155 -6.78,3.1154 8.8097,5.2147 8.8097,5.2148 7.4348,6.2316 7.4348,6.2316 5.8548,6.9851 5.8547,6.9851 0.8539,0.3077 0.8539,0.3077 238.6832,-107.6947 238.6831,-107.6947 0.8389,1.3573 0.8389,1.3573 81.1627,198.0297 81.1627,198.0297 0.8921,0.95 0.8921,0.95 -0.022,-68.95 -0.022,-68.95 -58.4377,-142.4571 -58.4378,-142.457 0.2096,-0.1097 0.2096,-0.1097 493.9881,-222.8499 493.9882,-222.8499 h 1.0125 1.0126 l 115.2493,76.832 115.2493,76.8321 -0.08,0.5846 -0.08,0.5846 -365.4062,346.5 -365.4062,346.5 -0.014,36.4462 -0.014,36.4461 3.25,-3.0439 3.25,-3.0438 108,-102.2914 108,-102.2914 5.1742,-5.1109 5.1742,-5.1109 3.1238,-24.5 3.1239,-24.5 0.5797,-3.75 0.5798,-3.75 h 26.1738 26.1738 l 241.9083,-229.5264 241.9084,-229.5265 1.04,0.4053 1.0401,0.4053 222,147.7448 222,147.7448 0.3937,0.3534 0.3936,0.3533 -38.2381,260.273 -38.2381,260.273 -0.243,0.254 -0.2429,0.2541 -177.4126,13.4638 -177.4126,13.4638 -6.25,0.6118 -6.25,0.6117 v 26.4204 26.4204 h 1.6894 1.6894 l 177.9312,-13.546 177.9313,-13.546 0.2416,0.296 0.2416,0.296 -20.6336,140.3123 -20.6336,140.3122 -58.4786,26.1073 -58.4787,26.1074 -0.2422,0.1559 -0.2422,0.156 -2.009,11.5698 -2.0091,11.5698 -2.5422,9.7844 -2.5422,9.7844 -3.8433,10.0702 -3.8433,10.0703 -0.6811,1.648 -0.6811,1.648 62.6316,-28.0009 62.6316,-28.0009 0.4869,0.4869 0.4869,0.4869 -105.0506,714.6824 -105.0507,714.6824 v 1.6003 1.6002 l 0.355,-0.4166 0.3551,-0.4167 34.7409,-60.2576 z m -1363.3125,-1424.7416 65.3615,-61.9991 5.75,-5.5499 5.75,-5.5499 V 2998.7009 2963 h -0.7959 -0.7958 l -64.4542,61.0836 -64.4541,61.0836 -1.6662,1.6664 -1.6662,1.6664 -1.0481,19.5 -1.0482,19.5 -1.549,11 -1.549,11 -2.3196,10.2777 -2.3197,10.2776 0.7215,-0.2776 0.7215,-0.2777 z m 298.3518,50.5184 2.524,-4.9809 1.6485,-6.2691 1.6484,-6.2692 0.4217,-46.6635 0.4216,-46.6636 -26.1339,-63.7565 -26.134,-63.7565 -0.1933,-1.0266 -0.1933,-1.0266 25,-1.8497 25,-1.8496 1.25,-0.4223 1.25,-0.4223 v -25.8647 -25.8648 l -0.4543,-0.4542 -0.4543,-0.4543 -22.7957,1.7749 -22.7957,1.7749 -0.6522,-0.2373 -0.6522,-0.2373 12.6522,-11.9277 12.6522,-11.9278 11.25,-10.8447 11.25,-10.8448 V 2782.4775 2747 h -1.0139 -1.0139 l -37.9861,36.0917 -37.9861,36.0917 v 88.531 88.531 l 34.1698,83.3773 34.1697,83.3773 h 0.3134 0.3134 z m -990.6237,-168.5652 32.3666,-2.4801 0.8834,-0.546 0.8834,-0.5459 v -1.441 -1.441 h 2.5628 2.5627 l 51.1873,-3.9616 51.1872,-3.9615 4.25,-0.4156 4.25,-0.4156 v 1.4085 1.4086 l 1.25,0.4444 1.25,0.4445 148.2738,-11.333 148.2738,-11.333 0.4922,-0.4922 0.4922,-0.4922 -4.3719,-7.9006 -4.3719,-7.9007 -4.2538,-6.9468 -4.2538,-6.9469 -6.8724,-10.2432 -6.8725,-10.2432 -3.2678,0.4452 -3.2679,0.4452 -226.5,17.0515 -226.5,17.0514 -2.25,0.4625 -2.25,0.4624 v 26.5605 26.5606 l 6.25,-0.6126 6.25,-0.6125 z m 695.4535,-52.9808 71.8201,-5.4418 0.9299,-0.5747 0.9299,-0.5747 V 2903.941 2878 l -1.75,-0.01 -1.75,-0.01 -87,6.6116 -87,6.6115 -0.2632,0.2453 -0.2632,0.2453 4.3824,9.4423 4.3825,9.4423 5.4974,14.4611 5.4975,14.4612 0.6215,1.801 0.6215,1.801 5.7618,-0.5935 5.7618,-0.5935 71.8201,-5.4418 z m 539.0907,-40.9683 84.9107,-6.4931 0.1655,-0.2559 0.1655,-0.2559 3.3083,-26.2821 3.3083,-26.2822 -0.3846,-0.3324 -0.3845,-0.3324 -88.5,6.8233 -88.5,6.8232 -3.25,0.041 -3.25,0.041 v 26.5 26.5 h 3.75 3.75 l 84.9108,-6.4931 z m 225.8392,-17.1431 9.75,-0.657 -0.01,-1.1024 -0.01,-1.1024 -1.9725,-24 -1.9726,-24 -0.019,-1.3486 -0.019,-1.3487 -11.75,0.7056 -11.75,0.7056 -0.8814,0.8244 -0.8814,0.8245 -2.3392,22.8186 -2.3392,22.8186 -0.029,3.3879 -0.029,3.388 7.25,-0.6286 7.25,-0.6285 9.75,-0.657 z m 228.1992,-17.3817 79.0508,-6.0198 1.25,-0.4488 1.25,-0.4487 V 2828.0314 2802 l -2.75,-0.023 -2.75,-0.023 -82,6.179 -82,6.179 -0.3424,0.2694 -0.3424,0.2695 3.1293,23.8243 3.1294,23.8242 0.4821,2.25 0.4821,2.25 h 1.1801 1.1801 l 79.0509,-6.0199 z m -1703.4754,-354.6699 0.5262,-0.5755 -3.9535,0.7161 -3.9535,0.7162 -3.5465,1.8101 -3.5465,1.8101 -1.9445,2.15 -1.9445,2.1501 8.9183,-4.1008 8.9183,-4.1007 z M 3391,1224.331 v -0.6691 l -18.169,-31.5809 -18.169,-31.581 -0.2666,-0.3523 -0.2666,-0.3523 -137.3144,-38.6477 L 3079.5,1082.5 l -98.5,-0.1928 -98.5,-0.1928 2,0.966 2,0.9661 251.5,70.4208 251.5,70.4207 0.75,0.056 0.75,0.056 z"
       id="path5388"
       inkscape:connector-curvature="0" />
    <path
       style="fill:#343b53"
       d="m 583.56509,3857.5897 -561.934902,-973.3762 -0.06509,-0.6055 -0.06509,-0.6055 L 583.50001,1909.5178 1145.5,936.03313 l 1124.5,0.004 1124.5,0.004 552.5,957.04807 552.5,957.0481 v 33.3588 33.3588 L 3947,3873.9051 3394.5,4830.9553 H 2270 1145.5 L 583.5651,3857.5791 Z M 3829.7168,3784 l 519.3473,-899.5 -0.4249,-1.6984 -0.425,-1.6984 L 3828.8614,1981.5516 3309.5086,1082 H 2269.9879 1230.4672 l -519.47746,899.75 -519.47743,899.75 10e-4,2 0.001,2 518.40571,898 518.40578,898 0.9595,1.2505 0.9595,1.2505 1040.0621,-0.2505 1040.0627,-0.2505 z M 1307,3291.4059 l -3.5,-0.4071 -9.5,-1.0349 -9.5,-1.0349 -9.9585,-2.0259 -9.9585,-2.0259 -11.0415,-3.5592 -11.0415,-3.5592 -9.4257,-4.3932 -9.4258,-4.3933 -10.0742,-6.683 -10.0743,-6.6829 -10.5928,-10.5532 -10.5927,-10.5532 -6.6227,-10.0432 -6.6228,-10.0432 -4.4317,-9.4568 -4.4317,-9.4568 -2.5632,-7.5531 -2.5631,-7.5531 -2.4719,-9.9469 -2.4719,-9.9469 -1.5924,-10.2746 -1.5925,-10.2746 -0.9562,-17.2254 -0.9562,-17.2254 v -263 l -0.01,-263 0.9769,-16.8242 0.9769,-16.8242 1.5808,-10.1758 1.5807,-10.1758 2.5318,-10.4638 2.5319,-10.4637 3.0094,-8.5363 3.0094,-8.5362 4.4008,-9.4257 4.4009,-9.4258 6.3867,-9.5742 6.3867,-9.5743 6.3495,-7.1906 6.3494,-7.1905 6.5,-5.6911 6.5,-5.691 9.6972,-6.4085 9.6971,-6.4085 8.3029,-3.874 8.3028,-3.8739 10.4416,-3.619 10.4417,-3.6189 12.0583,-2.4251 12.0584,-2.4251 11.3424,-1.1717 11.3425,-1.1716 24.1575,0.5453 24.1576,0.5453 10.5,1.6581 10.5,1.6581 8,1.8625 8,1.8625 9,3.1563 9,3.1562 9.5378,4.9605 9.5378,4.9605 6.4939,4.8632 6.4938,4.8633 8.2406,8.5835 8.2406,8.5836 5.5593,8.5288 5.5593,8.5287 4.2979,9.2216 4.2978,9.2215 3.5951,11.1526 3.5951,11.1527 2.4765,12.3473 2.4765,12.3474 1.5468,13.5 1.5468,13.5 0.6293,19.5 0.6293,19.5 -1.1777,23.5 -1.1776,23.5 -1.4395,15.5 -1.4394,15.5 -2.1095,17 -2.1095,17 -0.1985,0.2147 -0.1985,0.2146 -56.9273,-4.5233 -56.9273,-4.5233 -0.3783,-0.3783 -0.3783,-0.3782 2.5662,-20.8131 2.5661,-20.8131 1.0574,-13.096 1.0574,-13.096 v -25.0832 -25.0832 l -1.0377,-9.3208 -1.0377,-9.3208 -1.0404,-5.8399 -1.0404,-5.84 -2.0374,-6.66 -2.0374,-6.6601 -3.075,-5.8126 -3.075,-5.8126 -4.857,-4.3669 -4.8571,-4.3669 -5.2203,-1.8205 -5.2202,-1.8205 -12,0.011 -12,0.011 -5.4416,1.8827 -5.4417,1.8827 -4.6651,4.6651 -4.6651,4.6651 -2.1868,5.8449 -2.1869,5.8449 -1.2064,5.096 -1.2064,5.096 v 299 299 l 1.7692,7.5 1.7693,7.5 3.3163,6 3.3163,6 4.78,3.6354 4.7799,3.6354 5.1345,1.7153 5.1345,1.7152 9.125,0.5291 9.1251,0.529 5.0922,-1.2216 5.0923,-1.2216 4.4972,-2.9788 4.4971,-2.9788 4.0213,-6.0219 4.0213,-6.0219 2.4588,-7.7834 2.4587,-7.7834 1.5305,-8.374 1.5305,-8.374 1.0402,-10.5 1.0402,-10.5 10e-5,-24.5 1e-4,-24.5 -1.0417,-13 -1.0416,-13 -2.0349,-17.5 -2.0349,-17.5 -0.5568,-5.0386 -0.5569,-5.0386 57.8681,-4.5527 57.8681,-4.5527 0.2081,0.1327 0.208,0.1327 2.0264,15.4586 2.0264,15.4586 1.4717,15 1.4717,15 1.1758,22.5 1.1758,22.5 -0.5874,24.5 -0.5873,24.5 -1.5414,13 -1.5415,13 -2.5903,13 -2.5903,13 -4.276,13 -4.2759,13 -4.7649,9.4848 -4.7648,9.4847 -5.0423,7.5153 -5.0423,7.5152 -7.5797,7.8919 -7.5798,7.8919 -7.5854,5.6718 -7.5854,5.6719 -8.9146,4.586 -8.9146,4.5859 -8.5,2.9707 -8.5,2.9707 -9.1964,2.1467 -9.1964,2.1466 -10.3036,1.546 -10.3036,1.546 -24.5,0.3435 -24.5,0.3434 -3.5,-0.4071 z m 459.1071,-0.4847 -8.3929,-0.9416 -10.1071,-2.0498 -10.1071,-2.0498 -8.8383,-2.9505 -8.8384,-2.9506 -7.4008,-3.4194 -7.4008,-3.4193 -8.7609,-5.6933 -8.7608,-5.6933 -10.0931,-10.1268 -10.0931,-10.1268 -4.9921,-7.5 -4.9921,-7.5 -3.5597,-6.5 -3.5597,-6.5 -3.6648,-9.2731 -3.6647,-9.2731 -2.4741,-8.2269 -2.474,-8.2269 -2.4538,-12.0639 -2.4538,-12.0639 -1.5891,-12.9361 -1.589,-12.9361 -0.5466,-26 -0.5466,-26 1.1432,-21 1.1432,-21 1.5558,-17 1.5557,-17 1.8947,-14.3871 1.8946,-14.3871 0.3896,-0.3896 0.3896,-0.3896 56.3899,6.7109 56.39,6.711 0.1765,0.076 0.1765,0.075 -1.8893,14.9902 -1.8893,14.9902 -1.5989,16.5 -1.5989,16.5 -0.5794,25 -0.5794,25 1.1932,15 1.1932,15 1.9821,9.8249 1.9821,9.8249 2.5794,6.4434 2.5795,6.4433 4.3569,4.8459 4.3569,4.846 5.2795,2.3456 5.2794,2.3457 h 9 9 l 5.2138,-2.3174 5.2137,-2.3174 4.6047,-4.9228 4.6047,-4.9228 2.4792,-5.606 2.4793,-5.6061 1.9387,-8.1136 1.9386,-8.1136 1.1458,-15.5 1.1457,-15.5 -0.5923,-23.5 -0.5923,-23.5 -1.577,-12 -1.5769,-12 -2.5216,-11.288 -2.5215,-11.2881 -3.5344,-10.7119 -3.5345,-10.712 -3.4221,-8.2986 -3.4221,-8.2986 -5.111,-10.2014 -5.1109,-10.2014 -4.5346,-8 -4.5345,-8 -10.2018,-15.5 -10.2017,-15.5 -9.6512,-12.8214 -9.6512,-12.8213 -12.8298,-15.6787 -12.8298,-15.6786 -9.2998,-12.5 -9.2999,-12.5 -6.8682,-10.2338 -6.8681,-10.2338 -5.3075,-8.7662 -5.3076,-8.7662 -5.6216,-10.5 -5.6217,-10.5 -5.123,-11.5 -5.1231,-11.5 -4.5356,-12.5 -4.5357,-12.5 -3.814,-15 -3.814,-15 -2.1117,-12.5 -2.1117,-12.5 -1.5749,-16.5 -1.5748,-16.5 0.4943,-36 0.4943,-36 1.6363,-11.3791 1.6362,-11.3791 2.4904,-11.795 2.4904,-11.7951 3.5447,-10.8259 3.5448,-10.8258 5.873,-12.2408 5.873,-12.2408 6.3042,-9.2592 6.3042,-9.2592 10.0071,-10 10.007,-10 7.6738,-5.2572 7.6738,-5.2572 10.0194,-5.0159 10.0195,-5.0159 10.3067,-3.3697 10.3068,-3.3697 10.5,-2.0933 10.5,-2.0933 9,-1.0057 9,-1.0057 18.6988,-0.01 18.6988,-0.01 11.8012,1.5292 11.8012,1.5291 10.4687,2.5043 10.4686,2.5042 10.0314,4.0216 10.0313,4.0216 7.5,4.4072 7.5,4.4073 8.1101,6.4296 8.1102,6.4297 6.2879,7.3058 6.288,7.3059 4.3283,6.6909 4.3283,6.6909 5.0226,10.2706 5.0226,10.2706 3.9174,12.0908 3.9174,12.0907 2.5354,12.5 2.5355,12.5 1.6112,13.5 1.6112,13.5 0.5678,26 0.5679,26 -1.1743,20.5 -1.1742,20.5 -1.5178,14.5 -1.5178,14.5 -1.3553,10.3332 -1.3554,10.3331 -0.4704,0.4704 -0.4703,0.4703 -56.8632,-6.7067 -56.8631,-6.7067 -0.2742,-0.2043 -0.2741,-0.2043 2.0417,-16.3925 2.0417,-16.3925 1.0688,-20.5 1.0689,-20.5 -0.6646,-21 -0.6646,-21 -1.3908,-12 -1.3909,-12 -2.0022,-7.7975 -2.0022,-7.7975 -2.6004,-5.2025 -2.6005,-5.2025 -2.6783,-2.8416 -2.6783,-2.8416 -4,-2.0582 -4,-2.0583 -6.6388,-0.4765 -6.6388,-0.4766 -5.0201,1.2043 -5.0201,1.2043 -3.9378,2.8959 -3.9378,2.8958 -3.0444,5.7763 -3.0444,5.7762 -1.6399,7.3337 -1.6399,7.3336 -0.9463,12.1664 -0.9463,12.1663 -0.023,17.0763 -0.023,17.0763 1.0662,10.9237 1.0662,10.9237 1.9952,9.9585 1.9952,9.9585 3.5638,11.0415 3.5637,11.0415 4.9205,11.5 4.9206,11.5 6.9891,12.6991 6.9891,12.6991 10.8311,16.3009 10.831,16.3009 11.9915,15.6143 11.9915,15.6143 10.0264,13.8857 10.0264,13.8857 9.4858,14.5 9.4857,14.5 8.1871,14 8.187,14 9.3432,18.5 9.3433,18.5 5.9758,14 5.9758,14 4.6658,12.9015 4.6658,12.9016 4.5181,15.5984 4.5181,15.5985 3.3971,17 3.3971,17 1.5695,12 1.5695,12 1.119,22.9272 1.1191,22.9273 -1.147,22.0727 -1.1471,22.0728 -1.5634,10.5 -1.5633,10.5 -2.0352,9.5 -2.0352,9.5 -3.9095,11.9324 -3.9096,11.9324 -5.0346,10.5395 -5.0347,10.5396 -6.6287,10.028 -6.6287,10.0281 -11.5767,11.5032 -11.5766,11.5032 -8.5744,5.7215 -8.5743,5.7214 -11.4257,5.4364 -11.4256,5.4363 -8,2.6458 -8,2.6459 -8.3459,1.9565 -8.3459,1.9565 -9.6541,1.5584 -9.6541,1.5585 -23.5,0.3596 -23.5,0.3596 -8.3929,-0.9416 z m 501.8929,0.01 -8.5,-0.9408 -11.0332,-1.9625 -11.0332,-1.9625 -8.9668,-2.5693 -8.9668,-2.5693 -7,-2.6119 -7,-2.6118 -9,-4.4829 -9,-4.4829 -8.4689,-5.6164 -8.469,-5.6163 -9.8618,-9.4501 -9.8618,-9.4501 -6.3873,-8.5499 -6.3873,-8.5499 -5.9457,-11.5 -5.9458,-11.5 -3.5061,-10.1168 -3.5062,-10.1168 -2.5677,-11.4487 -2.5678,-11.4487 -1.5123,-12.9284 -1.5123,-12.9283 v -362.2562 -362.2561 h 75 75 l 0.035,363.75 0.035,363.75 1.4111,7.9192 1.4112,7.9192 3.1008,6.2987 3.1008,6.2987 4.4652,4.4652 4.4651,4.4651 5.2921,2.5036 5.2921,2.5035 6.816,1.187 6.816,1.1869 5.5508,-0.6524 5.5509,-0.6524 4.5791,-2.0247 4.579,-2.0248 2.8392,-2.6964 2.8392,-2.6964 2.4098,-4.0862 2.4098,-4.0861 2.251,-7.9139 2.251,-7.9138 0.2619,-368.75 0.2618,-368.75 h 72.5079 72.5079 l -0.3074,364.25 -0.3074,364.25 -1.642,10.5 -1.642,10.5 -2.1591,9.9082 -2.1591,9.9081 -3.4972,10.0919 -3.4972,10.0918 -3.8739,8.3028 -3.874,8.3029 -6.3626,9.6971 -6.3626,9.6972 -6.2715,7.256 -6.2715,7.256 -7.656,6.5788 -7.656,6.5788 -8,5.2822 -8,5.2821 -9.1628,4.5993 -9.1627,4.5992 -11.3373,3.9003 -11.3372,3.9002 -9,2.0997 -9,2.0996 -10,1.5974 -10,1.5974 -24.5,0.3702 -24.5,0.3703 -8.5,-0.9409 z m 1005,0.4793 -3.5,-0.4071 -9.5,-1.0349 -9.5,-1.0349 -9.9585,-2.0259 -9.9585,-2.0259 -11.0415,-3.5592 -11.0415,-3.5592 -9.4257,-4.3932 -9.4258,-4.3933 -9.793,-6.5195 -9.7931,-6.5195 -8.5829,-8.1245 -8.5829,-8.1244 -6.3757,-8.4952 -6.3758,-8.4952 -5.0592,-9.1325 -5.0593,-9.1325 -4.1387,-10.9645 -4.1387,-10.9645 -2.7814,-11 -2.7813,-11 -1.8433,-11.5 -1.8432,-11.5 v -294.5 -294.5 l 1.8359,-11.5 1.8359,-11.5 3.3422,-13 3.3422,-13 2.6535,-7 2.6536,-7 4.3403,-9 4.3403,-9 6.2118,-9.385 6.2118,-9.385 10.3619,-10.7252 10.3618,-10.7251 9.2544,-6.6146 9.2544,-6.6145 11,-5.4966 11,-5.4966 12.1,-3.9698 12.1001,-3.9698 10.8999,-2.0522 10.9,-2.0522 9,-0.9985 9,-0.9985 19.644,-0.01 19.6441,-0.01 10.3559,1.0288 10.356,1.0289 11.5,2.0166 11.5,2.0165 11.6123,3.8742 11.6123,3.8742 8.3877,4.2152 8.3877,4.2153 5.6803,3.8551 5.6803,3.8551 5.7105,4.997 5.7104,4.9971 5.4292,6.263 5.4291,6.263 4.5974,6.9717 4.5974,6.9716 4.7506,10.0284 4.7507,10.0283 2.9774,9 2.9775,9 2.6213,11.6948 2.6213,11.6948 1.4402,10.3052 1.4403,10.3052 1.0332,14.5 1.0331,14.5 0.01,16 0.01,16 -1.0245,18.5 -1.0246,18.5 -1.5109,16.5 -1.511,16.5 -2.0174,15.9702 -2.0174,15.9701 -0.2385,0.2386 -0.2386,0.2385 -56.9453,-4.5295 -56.9454,-4.5294 -0.3176,-0.3176 -0.3176,-0.3176 2.522,-20.3617 2.522,-20.3616 0.9811,-13.5 0.9811,-13.5 0.5999,-13.5 0.5999,-13.5 -1.0466,-18 -1.0466,-18 -1.5893,-9.5 -1.5893,-9.5 -2.4521,-7.3901 -2.4521,-7.3902 -2.546,-4.3446 -2.5461,-4.3445 -4.9437,-4.4448 -4.9437,-4.4448 -5.2203,-1.8205 -5.2202,-1.8205 -12,0.013 -12,0.013 -4,1.3906 -4,1.3905 -3.7552,2.3623 -3.7552,2.3623 -3.0055,4.1491 -3.0056,4.149 -1.959,6.3426 -1.959,6.3425 -1.0303,8.2164 -1.0302,8.2163 v 289.7039 289.7039 l 1.0626,7.8223 1.0626,7.8224 1.3367,4.5925 1.3368,4.5925 2.1421,4.199 2.1422,4.199 3.7507,3.7507 3.7507,3.7507 4.5049,2.1176 4.505,2.1175 6.184,1.2167 6.184,1.2166 8.3771,-0.4397 8.3771,-0.4397 5.6213,-2.7503 5.6214,-2.7502 3.0758,-3.6865 3.0758,-3.6864 3.3134,-7 3.3134,-7 1.6243,-6.0408 1.6242,-6.0409 1.5114,-9.9591 1.5114,-9.9592 1.0409,-19.827 1.0408,-19.8271 -1.0762,-20.1729 -1.0763,-20.173 -0.9915,-9.5 -0.9915,-9.5 -2.1078,-17.2864 -2.1078,-17.2864 0.3802,-0.3054 0.3803,-0.3054 57.5,-4.4945 57.5,-4.4946 0.319,0.2387 0.319,0.2387 2.3914,18.8476 2.3914,18.8477 1.5709,18 1.5709,18 0.5998,30.5 0.5997,30.5 -1.1653,16 -1.1653,16 -1.5187,10.5 -1.5187,10.5 -2.4481,11.0309 -2.4481,11.031 -2.575,7.969 -2.5749,7.9691 -3.6084,8.5 -3.6084,8.5 -4.6615,8.1257 -4.6615,8.1257 -4.7047,6.114 -4.7046,6.1141 -6.6995,6.6486 -6.6994,6.6486 -7,4.9543 -7,4.9543 -8.8557,4.4705 -8.8558,4.4705 -10.1727,3.404 -10.1728,3.404 -7.4715,1.5822 -7.4715,1.5822 -10,1.5137 -10,1.5137 -24.5,0.3435 -24.5,0.3434 -3.5,-0.4071 z m -661.4484,-15.1559 0.5016,-2.75 55.4775,-431 55.4774,-431 0.6095,-4.25 0.6095,-4.25 h 81.3411 81.3412 l 0.5656,3.25 0.5657,3.25 57.4796,433.1186 57.4797,433.1186 v 1.6314 1.6314 h -75.9809 -75.981 l -0.4741,-2.25 -0.4741,-2.25 -5.099,-56.5 -5.099,-56.5 -0.465,-2.25 -0.465,-2.25 H 2793.9809 2749 v 1.0233 1.0232 l -5.5,58.6796 -5.5,58.6797 v 1.2971 1.2971 h -63.475 -63.475 z m 212.3941,-245.5 -0.054,-4.25 -13.2982,-168 -13.2981,-168 -0.5734,1.5 -0.5735,1.5 -17.0806,169.5 -17.0806,169.5 0.01,1.25 0.01,1.25 h 31 31 l -0.054,-4.25 z"
       id="path5376"
       inkscape:connector-curvature="0" />
  </g>
</svg>
