<?xml version="1.0" encoding="UTF-8" standalone="no"?>
<svg xmlns:dc="http://purl.org/dc/elements/1.1/" xmlns:cc="http://creativecommons.org/ns#" xmlns:rdf="http://www.w3.org/1999/02/22-rdf-syntax-ns#"
  xmlns:svg="http://www.w3.org/2000/svg" xmlns="http://www.w3.org/2000/svg" xmlns:sodipodi="http://sodipodi.sourceforge.net/DTD/sodipodi-0.dtd"
  xmlns:inkscape="http://www.inkscape.org/namespaces/inkscape" enable-background="new 0 0 270 270" version="1.1" viewBox="0 0 125.08634 125.08634"
  xml:space="preserve" id="svg10" sodipodi:docname="Slack.svg" width="125.08634" height="125.08634" inkscape:version="0.92.2 (5c3e80d, 2017-08-06)">
  <metadata id="metadata16">
    <rdf:RDF>
      <cc:Work rdf:about="">
        <dc:format>image/svg+xml</dc:format>
        <dc:type rdf:resource="http://purl.org/dc/dcmitype/StillImage" />
        <dc:title />
      </cc:Work>
    </rdf:RDF>
  </metadata>
  <defs id="defs14" />
  <sodipodi:namedview pagecolor="#ffffff" bordercolor="#ffffff" borderopacity="1" objecttolerance="10" gridtolerance="10" guidetolerance="10"
    inkscape:pageopacity="0" inkscape:pageshadow="2" inkscape:window-width="1920" inkscape:window-height="1017" id="namedview12"
    showgrid="false" fit-margin-top="0" fit-margin-left="0" fit-margin-right="0" fit-margin-bottom="0" inkscape:zoom="2.4722548"
    inkscape:cx="-31.022506" inkscape:cy="65.458461" inkscape:window-x="-8" inkscape:window-y="-8" inkscape:window-maximized="1"
    inkscape:current-layer="svg10" />
  <style type="text/css" id="style2">
    .st0 {
      fill: #FFFFFF;
    }
  </style>
  <rect class="st0" transform="rotate(-18.518296)" x="30.608387" y="70.759659" width="17.599586" height="16.999601" id="rect4"
    style="stroke-width:0.99997652" />
  <rect class="st0" transform="rotate(-18.518296)" x="30.608387" y="70.759659" width="17.599586" height="16.999601" id="rect6"
    style="stroke-width:0.99997652" />
  <path class="st0" d="m 119.84317,45.34317 c -12.9,-43.0000001 -31.5,-53.0000001 -74.5,-40.1000001 C 2.3431699,18.14317 -7.6568301,36.74317 5.2431699,79.74317 c 12.9000001,43 31.5000001,53 74.5000001,40.1 43,-12.9 53,-31.5 40.1,-74.5 z m -21.7,27.9 -8.1,2.7 2.8,8.4 c 1.1,3.4 -0.7,7.1 -4.1,8.2 -0.7,0.2 -1.5,0.4 -2.2,0.3 -2.6,-0.1 -5.1,-1.8 -6,-4.4 l -2.8,-8.4 -16.7,5.6 2.8,8.4 c 1.1,3.4 -0.7,7.1 -4.1,8.2 -0.7,0.2 -1.5,0.4 -2.2,0.3 -2.6,-0.1 -5.1,-1.8 -6,-4.4 l -2.8,-8.4 -8.1,2.7 c -0.7,0.2 -1.5,0.4 -2.2,0.3 -2.6,-0.1 -5.1,-1.8 -6,-4.4 -1.1,-3.4 0.7,-7.1 4.1,-8.2 l 8.1,-2.7 -5.4,-16.1 -8.1,2.7 c -0.7,0.2 -1.5,0.4 -2.2,0.3 -2.6,-0.1 -5.1,-1.8 -6,-4.4 -1.1,-3.4 0.7,-7.1 4.1,-8.2 l 8.1,-2.7 -2.8,-8.4 c -1.1,-3.4 0.7,-7.1 4.1,-8.2 3.4,-1.1 7.1,0.7 8.2,4.1 l 2.8,8.4 16.7,-5.6 -2.8,-8.4 c -1.1,-3.4 0.7,-7.1 4.1,-8.2 3.4,-1.1 7.1,0.7 8.2,4.1 l 2.8,8.4 8.1,-2.7 c 3.4,-1.1 7.1,0.7 8.2,4.1 1.1,3.4 -0.7,7.1 -4.1,8.2 l -8.1,2.7 5.4,16.1 8.1,-2.7 c 3.4,-1.1 7.1,0.7 8.2,4.1 1.1,3.4 -0.7,7.1 -4.1,8.2 z"
    id="path8" inkscape:connector-curvature="0" />
</svg>